[Header]
FileType HTR
DataType HTRS
FileVersion 1
NumSegments 64
NumFrames 4
DataFrameRate 24
EulerRotationOrder ZYX
CalibrationUnits mm
RotationUnits Degrees
GlobalAxisofGravity Y
BoneLengthAxis Y
ScaleFactor 1.0
[SegmentNames&Hierarchy]
Hips	GLOBAL
Spine	Hips
Spine1	Spine
Spine2	Spine1
Neck	Spine2
Head	Neck
LeftEye	Head
RightEye	Head
LeftShoulder	Spine2
LeftArm	LeftShoulder
LeftForeArm	LeftArm
LeftHand	LeftForeArm
LeftHandThumb1	LeftHand
LeftHandThumb2	LeftHandThumb1
LeftHandThumb3	LeftHandThumb2
LeftHandThumb4	LeftHandThumb3
LeftHandIndex1	LeftHand
LeftHandIndex2	LeftHandIndex1
LeftHandIndex3	LeftHandIndex2
LeftHandIndex4	LeftHandIndex3
LeftHandMiddle1	LeftHand
LeftHandMiddle2	LeftHandMiddle1
LeftHandMiddle3	LeftHandMiddle2
LeftHandMiddle4	LeftHandMiddle3
LeftHandRing1	LeftHand
LeftHandRing2	LeftHandRing1
LeftHandRing3	LeftHandRing2
LeftHandRing4	LeftHandRing3
LeftHandPinky1	LeftHand
LeftHandPinky2	LeftHandPinky1
LeftHandPinky3	LeftHandPinky2
LeftHandPinky4	LeftHandPinky3
RightShoulder	Spine2
RightArm	RightShoulder
RightForeArm	RightArm
RightHand	RightForeArm
RightHandPinky1	RightHand
RightHandPinky2	RightHandPinky1
RightHandPinky3	RightHandPinky2
RightHandPinky4	RightHandPinky3
RightHandRing1	RightHand
RightHandRing2	RightHandRing1
RightHandRing3	RightHandRing2
RightHandRing4	RightHandRing3
RightHandMiddle1	RightHand
RightHandMiddle2	RightHandMiddle1
RightHandMiddle3	RightHandMiddle2
RightHandMiddle4	RightHandMiddle3
RightHandIndex1	RightHand
RightHandIndex2	RightHandIndex1
RightHandIndex3	RightHandIndex2
RightHandIndex4	RightHandIndex3
RightHandThumb1	RightHand
RightHandThumb2	RightHandThumb1
RightHandThumb3	RightHandThumb2
RightHandThumb4	RightHandThumb3
LeftUpLeg	Hips
LeftLeg	LeftUpLeg
LeftFoot	LeftLeg
LeftToeBase	LeftFoot
RightUpLeg	Hips
RightLeg	RightUpLeg
RightFoot	RightLeg
RightToeBase	RightFoot
[BasePosition]
Hips	0	0	0	0	0	0	1
Spine	0	0	0	0	0	0	1
Spine1	0	0	0	0	0	0	1
Spine2	0	0	0	0	0	0	1
Neck	0	0	0	0	0	0	1
Head	0	0	0	0	0	0	1
LeftEye	0	0	0	0	0	0	1
RightEye	0	0	0	0	0	0	1
LeftShoulder	0	0	0	0	0	0	1
LeftArm	0	0	0	0	0	0	1
LeftForeArm	0	0	0	0	0	0	1
LeftHand	0	0	0	0	0	0	1
LeftHandThumb1	0	0	0	0	0	0	1
LeftHandThumb2	0	0	0	0	0	0	1
LeftHandThumb3	0	0	0	0	0	0	1
LeftHandThumb4	0	0	0	0	0	0	1
LeftHandIndex1	0	0	0	0	0	0	1
LeftHandIndex2	0	0	0	0	0	0	1
LeftHandIndex3	0	0	0	0	0	0	1
LeftHandIndex4	0	0	0	0	0	0	1
LeftHandMiddle1	0	0	0	0	0	0	1
LeftHandMiddle2	0	0	0	0	0	0	1
LeftHandMiddle3	0	0	0	0	0	0	1
LeftHandMiddle4	0	0	0	0	0	0	1
LeftHandRing1	0	0	0	0	0	0	1
LeftHandRing2	0	0	0	0	0	0	1
LeftHandRing3	0	0	0	0	0	0	1
LeftHandRing4	0	0	0	0	0	0	1
LeftHandPinky1	0	0	0	0	0	0	1
LeftHandPinky2	0	0	0	0	0	0	1
LeftHandPinky3	0	0	0	0	0	0	1
LeftHandPinky4	0	0	0	0	0	0	1
RightShoulder	0	0	0	0	0	0	1
RightArm	0	0	0	0	0	0	1
RightForeArm	0	0	0	0	0	0	1
RightHand	0	0	0	0	0	0	1
RightHandPinky1	0	0	0	0	0	0	1
RightHandPinky2	0	0	0	0	0	0	1
RightHandPinky3	0	0	0	0	0	0	1
RightHandPinky4	0	0	0	0	0	0	1
RightHandRing1	0	0	0	0	0	0	1
RightHandRing2	0	0	0	0	0	0	1
RightHandRing3	0	0	0	0	0	0	1
RightHandRing4	0	0	0	0	0	0	1
RightHandMiddle1	0	0	0	0	0	0	1
RightHandMiddle2	0	0	0	0	0	0	1
RightHandMiddle3	0	0	0	0	0	0	1
RightHandMiddle4	0	0	0	0	0	0	1
RightHandIndex1	0	0	0	0	0	0	1
RightHandIndex2	0	0	0	0	0	0	1
RightHandIndex3	0	0	0	0	0	0	1
RightHandIndex4	0	0	0	0	0	0	1
RightHandThumb1	0	0	0	0	0	0	1
RightHandThumb2	0	0	0	0	0	0	1
RightHandThumb3	0	0	0	0	0	0	1
RightHandThumb4	0	0	0	0	0	0	1
LeftUpLeg	0	0	0	0	0	0	1
LeftLeg	0	0	0	0	0	0	1
LeftFoot	0	0	0	0	0	0	1
LeftToeBase	0	0	0	0	0	0	1
RightUpLeg	0	0	0	0	0	0	1
RightLeg	0	0	0	0	0	0	1
RightFoot	0	0	0	0	0	0	1
RightToeBase	0	0	0	0	0	0	1
[Hips]
323	395.9747314	1055.301025	-7.796467781	-9.309384346	-9.651288033	-357.3272095	1.0
324	405.1642151	1065.214478	-5.067949295	-8.753230095	-8.347090721	-356.9705811	1.0
325	412.4554138	1059.782471	2.798348665	-6.542426109	-9.002821922	-359.4007263	1.0
326	420.9053955	1034.347412	12.20605087	-3.802459002	-10.34130383	-361.293457	1.0
[Spine]
323	0	101.8159943	1.315000057	20.88933754	-13.66901875	-11.6781826	1.0
324	0	101.8159943	1.315000057	21.26725769	-21.06938744	-17.35842896	1.0
325	0	101.8159943	1.315000057	19.8536377	-28.27062225	-16.18445015	1.0
326	0	101.8159943	1.315000057	17.23514557	-33.53902435	-13.5921936	1.0
[Spine1]
323	0	100.8349991	-10.00800037	1.883316636	-2.459279776	3.150134087	1.0
324	0	100.8349991	-10.00800037	2.916413784	-3.598568201	2.374953985	1.0
325	0	100.8349991	-10.00800037	2.800509691	-4.326063633	0.5344882011	1.0
326	0	100.8349991	-10.00800037	2.023374081	-4.815345764	-0.7062015533	1.0
[Spine2]
323	0	91	-13.73399925	2.029267311	-2.322510719	3.161382675	1.0
324	0	91	-13.73399925	3.119711876	-3.456164837	2.326802254	1.0
325	0	91	-13.73399925	2.921528578	-4.252227783	0.4762821496	1.0
326	0	91	-13.73399925	2.053020954	-4.800355434	-0.7272970676	1.0
[Neck]
323	0	166.7169952	-25.16200066	6.035303593	-4.920802116	-2.191311359	1.0
324	0	166.7169952	-25.16200066	7.277746677	-4.418851852	-2.450562239	1.0
325	0	166.7169952	-25.16200066	7.120558262	-4.441979408	-2.108760834	1.0
326	0	166.7169952	-25.16200066	6.892601967	-4.663322449	-1.637900591	1.0
[Head]
323	0	96.17900085	16.84999847	2.586211205	-32.23699951	10.97954941	1.0
324	0	96.17900085	16.84999847	3.126109838	-31.14936447	11.79868412	1.0
325	0	96.17900085	16.84999847	6.327273846	-30.18422127	9.003947258	1.0
326	0	96.17900085	16.84999847	6.95121336	-29.44485855	6.427753925	1.0
[LeftEye]
323	30.6760006	64.09500122	92.83599854	0	0	0	1.0
324	30.6760006	64.09500122	92.83599854	0	0	0	1.0
325	30.6760006	64.09500122	92.83599854	0	0	0	1.0
326	30.6760006	64.09500122	92.83599854	0	0	0	1.0
[RightEye]
323	-30.6760006	64.09500122	92.83499908	0	0	0	1.0
324	-30.6760006	64.09500122	92.83499908	0	0	0	1.0
325	-30.6760006	64.09500122	92.83499908	0	0	0	1.0
326	-30.6760006	64.09500122	92.83499908	0	0	0	1.0
[LeftShoulder]
323	45.70400238	109.4599991	-26.28000069	1.008518219	-9.96945858	1.090123057	1.0
324	45.70400238	109.4599991	-26.28000069	1.396017432	-9.570504189	-2.541383266	1.0
325	45.70400238	109.4599991	-26.28000069	1.588538647	-9.401285172	-4.388911724	1.0
326	45.70400238	109.4599991	-26.28000069	1.985145569	-12.09847546	-4.849551201	1.0
[LeftArm]
323	105.923996	-5.24600029	-22.32099915	-52.71448898	-15.34298706	6.643344879	1.0
324	105.923996	-5.24600029	-22.32099915	-44.90447617	-21.59430504	12.16587162	1.0
325	105.923996	-5.24600029	-22.32099915	-34.6620369	-27.47953415	11.80799389	1.0
326	105.923996	-5.24600029	-22.32099915	-24.81571388	-29.31902885	6.750214577	1.0
[LeftForeArm]
323	278.414978	-0.0009999999311	0	-4.577701111e-05	-103.8033447	-0.0001983639086	1.0
324	278.414978	-0.0009999999311	0	1.751622042e-10	-106.8085327	-0.0002288818796	1.0
325	278.414978	-0.0009999999311	0	0	-105.9265976	-0.0002136230469	1.0
326	278.414978	-0.0009999999311	0	1.525981497e-05	-100.7758713	-0.0002136236726	1.0
[LeftHand]
323	283.2879944	0	0	29.24066544	-16.36561584	13.83315945	1.0
324	283.2879944	0	0	30.17539024	-16.55446243	10.05922031	1.0
325	283.2879944	0	0	30.19623566	-15.24272919	8.495563507	1.0
326	283.2879944	0	0	30.3375206	-13.19396305	9.900608063	1.0
[LeftHandThumb1]
323	24.6609993	-15.75	26.8239994	-2.851884127	5.866642475	12.52608967	1.0
324	24.6609993	-15.75	26.8239994	-2.54300189	3.348628998	9.838429451	1.0
325	24.6609993	-15.75	26.8239994	-2.844455481	1.761141777	8.508050919	1.0
326	24.6609993	-15.75	26.8239994	-3.542275906	0.4270995557	8.245914459	1.0
[LeftHandThumb2]
323	32.29800034	-18.64699936	18.64699936	1.724214435	0.6224317551	-0.7260694504	1.0
324	32.29800034	-18.64699936	18.64699936	3.326869488	4.889567375	0.3506503701	1.0
325	32.29800034	-18.64699936	18.64699936	5.314520359	10.51428604	1.9443959	1.0
326	32.29800034	-18.64699936	18.64699936	7.425814629	16.46484184	3.88837862	1.0
[LeftHandThumb3]
323	26.52600098	-15.31499958	15.31499958	-3.044435978	-2.619408846	3.310412645	1.0
324	26.52600098	-15.31499958	15.31499958	-2.171645164	-1.471244097	3.123578787	1.0
325	26.52600098	-15.31499958	15.31499958	-1.134766579	0.045912534	2.93977046	1.0
326	26.52600098	-15.31499958	15.31499958	-0.1341819018	1.630679011	2.800884724	1.0
[LeftHandThumb4]
323	19.54599953	-11.28499985	11.28499985	0	0	0	1.0
324	19.54599953	-11.28499985	11.28499985	0	0	0	1.0
325	19.54599953	-11.28499985	11.28499985	0	0	0	1.0
326	19.54599953	-11.28499985	11.28499985	0	0	0	1.0
[LeftHandIndex1]
323	91.09299469	-5.170999527	22.60099792	0.04111133888	-6.492682457	-0.2513732016	1.0
324	91.09299469	-5.170999527	22.60099792	0.04708997905	-7.489054203	-4.30556488	1.0
325	91.09299469	-5.170999527	22.60099792	0.07589940727	-8.732392311	-3.463020086	1.0
326	91.09299469	-5.170999527	22.60099792	0.1031440794	-10.02399254	0.699624002	1.0
[LeftHandIndex2]
323	36.76399994	0	0	2.724587148e-06	0.004238029011	-0.0353186056	1.0
324	36.76399994	0	0	6.949839189e-06	0.004681627266	-0.0389691852	1.0
325	36.76399994	0	0	-1.084864266e-06	0.00104630203	-0.008743483573	1.0
326	36.76399994	0	0	4.553350209e-06	1.933617114e-06	-1.257569511e-05	1.0
[LeftHandIndex3]
323	28.83100128	0	0	-0.07156763226	0.990321815	-8.266864777	1.0
324	28.83100128	0	0	-0.07735738903	1.029454112	-8.59601593	1.0
325	28.83100128	0	0	-0.07832731307	1.035801172	-8.649487495	1.0
326	28.83100128	0	0	-0.07598656416	1.020246983	-8.518569946	1.0
[LeftHandIndex4]
323	23.92700005	0	0	0	0	0	1.0
324	23.92700005	0	0	0	0	0	1.0
325	23.92700005	0	0	0	0	0	1.0
326	23.92700005	0	0	0	0	0	1.0
[LeftHandMiddle1]
323	95.33399963	0	0	-0.01215135027	2.275382519	-3.825340033	1.0
324	95.33399963	0	0	-0.04489733651	2.084235668	-6.691056252	1.0
325	95.33399963	0	0	-0.03980142996	1.559653282	-6.256321907	1.0
326	95.33399963	0	0	-0.0137690613	0.8655284047	-3.688503742	1.0
[LeftHandMiddle2]
323	36.98199844	0	0	-2.645764198e-06	-7.379678573e-05	3.226879699e-06	1.0
324	36.98199844	0	0	3.23471312e-07	-6.284866686e-05	0.0001110189041	1.0
325	36.98199844	0	0	-4.699018518e-06	-6.846876204e-05	6.621167995e-05	1.0
326	36.98199844	0	0	-1.582892764e-06	-6.58936915e-05	-6.397633842e-05	1.0
[LeftHandMiddle3]
323	29.50900078	0	0	-0.04765472561	0.8089613914	-6.744991302	1.0
324	29.50900078	0	0	-0.04968740419	0.8258089423	-6.886044025	1.0
325	29.50900078	0	0	-0.0493013002	0.8227056861	-6.860063553	1.0
326	29.50900078	0	0	-0.04767566919	0.8088704944	-6.744101524	1.0
[LeftHandMiddle4]
323	28.3390007	0	0	0	0	0	1.0
324	28.3390007	0	0	0	0	0	1.0
325	28.3390007	0	0	0	0	0	1.0
326	28.3390007	0	0	0	0	0	1.0
[LeftHandRing1]
323	91.04499817	-0.4390000105	-18.65100098	0.08484321833	10.43460083	-4.179115772	1.0
324	91.04499817	-0.4390000105	-18.65100098	0.05549094453	10.62218285	-6.560796261	1.0
325	91.04499817	-0.4390000105	-18.65100098	0.05139130354	10.35383606	-6.486136913	1.0
326	91.04499817	-0.4390000105	-18.65100098	0.06280148029	9.837155342	-4.998065948	1.0
[LeftHandRing2]
323	31.54000092	0	0	-1.244728082e-06	1.182846106e-07	6.568774552e-05	1.0
324	31.54000092	0	0	4.496618658e-06	-1.466874073e-05	-9.180680354e-05	1.0
325	31.54000092	0	0	-7.66021094e-06	-5.8173855e-06	-8.188930951e-05	1.0
326	31.54000092	0	0	-5.647155376e-06	-1.141613393e-05	4.22175508e-05	1.0
[LeftHandRing3]
323	29.37700081	0	0	-0.04663285986	0.8000516891	-6.670229912	1.0
324	29.37700081	0	0	-0.04768428579	0.809045136	-6.745544434	1.0
325	29.37700081	0	0	-0.04682969302	0.8018792868	-6.685574055	1.0
326	29.37700081	0	0	-0.04528392106	0.7885490656	-6.573888302	1.0
[LeftHandRing4]
323	26.47500038	0	0	0	0	0	1.0
324	26.47500038	0	0	0	0	0	1.0
325	26.47500038	0	0	0	0	0	1.0
326	26.47500038	0	0	0	0	0	1.0
[LeftHandPinky1]
323	80.77799988	-4.887000084	-38.06099701	0.6915456057	24.74661827	-0.5226287246	1.0
324	80.77799988	-4.887000084	-38.06099701	0.7103095055	25.52419281	-2.937960625	1.0
325	80.77799988	-4.887000084	-38.06099701	0.7114921808	25.59960938	-3.18013072	1.0
326	80.77799988	-4.887000084	-38.06099701	0.7024869919	25.28450012	-2.427960157	1.0
[LeftHandPinky2]
323	36	0	0	0.01922263391	-4.052444458	-0.5261793733	1.0
324	36	0	0	0.0223950576	-4.047065258	-0.5709321499	1.0
325	36	0	0	0.02267626673	-4.046582222	-0.5749743581	1.0
326	36	0	0	0.01933617331	-4.052248478	-0.5278160572	1.0
[LeftHandPinky3]
323	21.14200211	0	0	-0.03043403663	0.646841526	-5.388436317	1.0
324	21.14200211	0	0	-0.03072625957	0.6498672962	-5.413836479	1.0
325	21.14200211	0	0	-0.02957843803	0.6377077103	-5.31224966	1.0
326	21.14200211	0	0	-0.02814188972	0.6220626235	-5.181508541	1.0
[LeftHandPinky4]
323	19.75699997	0	0	0	0	0	1.0
324	19.75699997	0	0	0	0	0	1.0
325	19.75699997	0	0	0	0	0	1.0
326	19.75699997	0	0	0	0	0	1.0
[RightShoulder]
323	-45.70000076	109.4620056	-26.28000069	-0.2905939519	-5.110741138	10.78341675	1.0
324	-45.70000076	109.4620056	-26.28000069	-0.2058088779	-5.250655174	3.740306854	1.0
325	-45.70000076	109.4620056	-26.28000069	-0.1801729649	-5.998216629	-1.424107432	1.0
326	-45.70000076	109.4620056	-26.28000069	-0.1009321958	-5.905422688	-4.861496925	1.0
[RightArm]
323	-105.9280014	-5.248000145	-22.32099915	17.02231407	-34.9700737	27.82684517	1.0
324	-105.9280014	-5.248000145	-22.32099915	19.76449013	-34.8938446	21.64571571	1.0
325	-105.9280014	-5.248000145	-22.32099915	13.78912926	-28.69531631	12.4948864	1.0
326	-105.9280014	-5.248000145	-22.32099915	13.10311794	-18.7928257	0.7219611406	1.0
[RightForeArm]
323	-278.414978	0	0	9.175346349e-06	29.93572044	1.067502853e-05	1.0
324	-278.414978	0	0	7.326309515e-06	23.73503876	4.889556294e-06	1.0
325	-278.414978	0	0	-5.123356459e-06	16.96101761	-3.686657237e-06	1.0
326	-278.414978	0	0	2.752439741e-06	9.317720413	-6.11974292e-06	1.0
[RightHand]
323	-283.2879944	0	0.0009999999311	-1.743237853	-0.5564692616	-5.683942318	1.0
324	-283.2879944	0	0.0009999999311	-5.381731033	1.390518665	-7.024029255	1.0
325	-283.2879944	0	0.0009999999311	-7.555066109	4.487978935	-9.702012062	1.0
326	-283.2879944	0	0.0009999999311	-5.773988724	7.553248405	-12.21207237	1.0
[RightHandPinky1]
323	-80.76699829	-4.885000229	-38.06000137	-3.427580595	-14.98218346	59.99946594	1.0
324	-80.76699829	-4.885000229	-38.06000137	-2.780502796	-17.57972527	54.09246826	1.0
325	-80.76699829	-4.885000229	-38.06000137	-2.121454954	-19.8281765	47.72979736	1.0
326	-80.76699829	-4.885000229	-38.06000137	-1.516260624	-21.25165367	41.47814178	1.0
[RightHandPinky2]
323	-36	0	0.0009999999311	-3.528125763	-6.036165237	60.59492874	1.0
324	-36	0	0.0009999999311	-2.73613596	-5.517661572	52.73899078	1.0
325	-36	0	0.0009999999311	-1.927021027	-4.797999859	43.75720978	1.0
326	-36	0	0.0009999999311	-1.259596467	-3.987736702	35.06055832	1.0
[RightHandPinky3]
323	-21.14200211	0	0	-0.01831548847	-0.5044870973	4.159466743	1.0
324	-21.14200211	0	0	-0.008576513268	-0.3450474739	2.84342432	1.0
325	-21.14200211	0	0	-0.002470317762	-0.1857260615	1.530011415	1.0
326	-21.14200211	0	0	-0.0001802609622	-0.05018993467	0.4133556187	1.0
[RightHandPinky4]
323	-19.75699997	0	0	0	0	0	1.0
324	-19.75699997	0	0	0	0	0	1.0
325	-19.75699997	0	0	0	0	0	1.0
326	-19.75699997	0	0	0	0	0	1.0
[RightHandRing1]
323	-91.03599548	-0.4390000105	-18.65100098	-1.113844037	-5.868228436	32.93147659	1.0
324	-91.03599548	-0.4390000105	-18.65100098	-0.8886376023	-7.211024761	29.50596046	1.0
325	-91.03599548	-0.4390000105	-18.65100098	-0.6874345541	-8.412773132	26.17874336	1.0
326	-91.03599548	-0.4390000105	-18.65100098	-0.5515488982	-9.269927979	23.81017494	1.0
[RightHandRing2]
323	-31.54000092	0	0	-1.351611137	-4.115451813	36.34940338	1.0
324	-31.54000092	0	0	-0.9093331695	-3.435779572	29.64092064	1.0
325	-31.54000092	0	0	-0.5064066052	-2.604264736	22.00445747	1.0
326	-31.54000092	0	0	-0.2256785035	-1.757059574	14.63702679	1.0
[RightHandRing3]
323	-29.37700081	0	0	1.457261801	-2.30184269	19.32713127	1.0
324	-29.37700081	0	0	2.205053091	-1.699300885	14.14456367	1.0
325	-29.37700081	0	0	2.353542566	-1.110792398	9.19382	1.0
326	-29.37700081	0	0	1.949792504	-0.6062455773	5.002127647	1.0
[RightHandRing4]
323	-26.47500038	0	0	0	0	0	1.0
324	-26.47500038	0	0	0	0	0	1.0
325	-26.47500038	0	0	0	0	0	1.0
326	-26.47500038	0	0	0	0	0	1.0
[RightHandMiddle1]
323	-95.32500458	0	0	-0.3209999502	2.301210403	17.98770905	1.0
324	-95.32500458	0	0	-0.2205643654	1.875789762	14.9062891	1.0
325	-95.32500458	0	0	-0.1772729754	1.336001515	13.27591801	1.0
326	-95.32500458	0	0	-0.1602596641	0.8926035166	12.54929924	1.0
[RightHandMiddle2]
323	-36.98199844	0	0	-1.787302732	-4.64815712	42.04732513	1.0
324	-36.98199844	0	0	-1.212274551	-3.919549942	34.36096573	1.0
325	-36.98199844	0	0	-0.6777458787	-2.993047237	25.51244926	1.0
326	-36.98199844	0	0	-0.2989810407	-2.016808987	16.86279488	1.0
[RightHandMiddle3]
323	-29.50900078	0	0	0.8797568083	-3.645526409	31.61187363	1.0
324	-29.50900078	0	0	2.100899458	-2.708963156	22.91978455	1.0
325	-29.50900078	0	0	2.424347878	-1.779635429	14.82076645	1.0
326	-29.50900078	0	0	1.924899936	-0.9667372108	7.976420879	1.0
[RightHandMiddle4]
323	-28.3390007	0	0.0009999999311	0	0	0	1.0
324	-28.3390007	0	0.0009999999311	0	0	0	1.0
325	-28.3390007	0	0.0009999999311	0	0	0	1.0
326	-28.3390007	0	0.0009999999311	0	0	0	1.0
[RightHandIndex1]
323	-91.08300018	-5.167999744	22.60099792	0.1253828555	11.33582401	4.871877193	1.0
324	-91.08300018	-5.167999744	22.60099792	0.1389652938	11.48230362	3.119076014	1.0
325	-91.08300018	-5.167999744	22.60099792	0.1284775138	11.26611614	4.178735733	1.0
326	-91.08300018	-5.167999744	22.60099792	0.09609048814	10.88078022	6.754590988	1.0
[RightHandIndex2]
323	-36.76399994	0	0	-3.292236328	-5.897679806	58.31298828	1.0
324	-36.76399994	0	0	-2.337755442	-5.191764355	48.45891571	1.0
325	-36.76399994	0	0	-1.343785882	-4.104845524	36.24035645	1.0
326	-36.76399994	0	0	-0.5873510838	-2.796017647	23.72265244	1.0
[RightHandIndex3]
323	-28.83100128	0	0	-1.626838446	-4.464387894	40.02759552	1.0
324	-28.83100128	0	0	-0.8040955067	-3.244180918	27.8346405	1.0
325	-28.83100128	0	0	-0.3092450202	-2.050369978	17.15225983	1.0
326	-28.83100128	0	0	-0.07527755946	-1.020491123	8.437577248	1.0
[RightHandIndex4]
323	-23.92700005	0	0	0	0	0	1.0
324	-23.92700005	0	0	0	0	0	1.0
325	-23.92700005	0	0	0	0	0	1.0
326	-23.92700005	0	0	0	0	0	1.0
[RightHandThumb1]
323	-24.64799881	-15.72700024	26.82600021	1.801090121	-11.56659508	-12.55933857	1.0
324	-24.64799881	-15.72700024	26.82600021	3.222600222	-12.81156921	-13.09558964	1.0
325	-24.64799881	-15.72700024	26.82600021	4.335859299	-13.88155746	-14.04925823	1.0
326	-24.64799881	-15.72700024	26.82600021	5.174032688	-14.79997063	-15.38394356	1.0
[RightHandThumb2]
323	-32.29800034	-18.64699936	18.64699936	5.919207096	-12.53819847	-1.655251622	1.0
324	-32.29800034	-18.64699936	18.64699936	4.597157001	-7.82918644	-0.5810445547	1.0
325	-32.29800034	-18.64699936	18.64699936	3.458061218	-3.758275032	0.2996847928	1.0
326	-32.29800034	-18.64699936	18.64699936	2.52630496	-0.5568038821	1.009896517	1.0
[RightHandThumb3]
323	-26.52600098	-15.31399918	15.31399918	0.04560226575	-2.635657549	-2.418680191	1.0
324	-26.52600098	-15.31399918	15.31399918	-1.101995468	-0.4512145221	-2.23702836	1.0
325	-26.52600098	-15.31399918	15.31399918	-2.076168299	1.33213675	-2.259542942	1.0
326	-26.52600098	-15.31399918	15.31399918	-2.876516104	2.719162703	-2.424431324	1.0
[RightHandThumb4]
323	-19.54599953	-11.28499985	11.28499985	0	0	0	1.0
324	-19.54599953	-11.28499985	11.28499985	0	0	0	1.0
325	-19.54599953	-11.28499985	11.28499985	0	0	0	1.0
326	-19.54599953	-11.28499985	11.28499985	0	0	0	1.0
[LeftUpLeg]
323	82.07800293	-67.51699829	-15.99599934	-21.70808792	11.52436447	3.402984619	1.0
324	82.07800293	-67.51699829	-15.99599934	-14.13620472	8.53026104	2.2449646	1.0
325	82.07800293	-67.51699829	-15.99599934	-3.708597183	5.487368584	3.610503912	1.0
326	82.07800293	-67.51699829	-15.99599934	2.677187681	6.63945961	2.799147367	1.0
[LeftLeg]
323	0	-443.7049866	2.845999956	48.12700272	11.94295311	-1.208836555	1.0
324	0	-443.7049866	2.845999956	44.49409485	11.11553001	-2.603223562	1.0
325	0	-443.7049866	2.845999956	29.83955002	10.78363228	-2.876190424	1.0
326	0	-443.7049866	2.845999956	19.10112762	10.15380859	-0.3010993004	1.0
[LeftFoot]
323	0	-444.2789917	-29.8219986	8.498505592	8.736320496	1.654675722	1.0
324	0	-444.2789917	-29.8219986	15.45762634	11.6603756	3.533707142	1.0
325	0	-444.2789917	-29.8219986	10.4672842	12.23145008	0.6589007974	1.0
326	0	-444.2789917	-29.8219986	-6.82164669	8.114695549	-3.062577486	1.0
[LeftToeBase]
323	0	-87.28699493	107.1060028	-2.441734076	-3.827141882e-06	-2.298787294e-08	1.0
324	0	-87.28699493	107.1060028	-2.14951849	-1.825030267e-06	2.134654324e-06	1.0
325	0	-87.28699493	107.1060028	-17.55461502	-0.9163748026	-3.397591352	1.0
326	0	-87.28699493	107.1060028	-13.14548397	-1.568793232e-05	3.30512762e-06	1.0
[RightUpLeg]
323	-82.07800293	-67.51699829	-15.99599934	-8.267731667	3.89523387	-3.102361679	1.0
324	-82.07800293	-67.51699829	-15.99599934	-10.02562618	4.705481052	-2.273262262	1.0
325	-82.07800293	-67.51699829	-15.99599934	-9.781210899	11.76167297	1.384345651	1.0
326	-82.07800293	-67.51699829	-15.99599934	-15.89220619	19.02435112	3.163545609	1.0
[RightLeg]
323	0	-443.7049866	2.861999989	35.59413528	-8.066444397	-5.71060276	1.0
324	0	-443.7049866	2.861999989	30.39242935	-4.11470747	-3.245082378	1.0
325	0	-443.7049866	2.861999989	17.38735962	-8.032245636	-3.370459795	1.0
326	0	-443.7049866	2.861999989	19.29076195	-8.73013401	-3.109236002	1.0
[RightFoot]
323	0	-444.2770081	-29.83799934	-0.02545181103	-14.25167561	9.220585823	1.0
324	0	-444.2770081	-29.83799934	-4.585865498	-1.723240495	12.80144596	1.0
325	0	-444.2770081	-29.83799934	-11.43482876	-0.6062570214	16.48997307	1.0
326	0	-444.2770081	-29.83799934	-21.1534462	0.7774838209	7.795006275	1.0
[RightToeBase]
323	0	-87.28699493	107.1060028	0.2763102651	0.007322639227	-0.3226416111	1.0
324	0	-87.28699493	107.1060028	6.741783142	-7.988411198e-06	7.105398709e-06	1.0
325	0	-87.28699493	107.1060028	6.423463345	-3.375777851e-06	4.85330429e-06	1.0
326	0	-87.28699493	107.1060028	6.619427204	-2.242473727e-07	-4.121762686e-06	1.0
[EndOfFile]
